<svg width="180" height="61" viewBox="0 0 180 61" fill="none" xmlns="http://www.w3.org/2000/svg">
<line y1="-2.95" x2="43" y2="-2.95" transform="matrix(-1 0 0 1 43 16.5)" stroke="#A0DDB9" stroke-width="5.9"/>
<line y1="-2.95" x2="43" y2="-2.95" transform="matrix(-1 0 0 1 43 43.5)" stroke="#A0DDB9" stroke-width="5.9"/>
<path d="M56.312 47V13.4H77.24V18.728H62.168V27.464H76.088V32.84H62.168V47H56.312ZM82.1915 47V13.4H87.7595V47H82.1915ZM105.986 47.672C103.618 47.672 101.49 47.192 99.602 46.232C97.746 45.272 96.274 43.88 95.186 42.056C94.13 40.232 93.602 38.04 93.602 35.48V34.76C93.602 32.232 94.13 30.056 95.186 28.232C96.274 26.408 97.746 25.016 99.602 24.056C101.49 23.064 103.618 22.568 105.986 22.568C108.354 22.568 110.466 23.064 112.322 24.056C114.21 25.016 115.682 26.408 116.738 28.232C117.826 30.056 118.37 32.232 118.37 34.76V35.48C118.37 38.04 117.826 40.232 116.738 42.056C115.682 43.88 114.21 45.272 112.322 46.232C110.466 47.192 108.354 47.672 105.986 47.672ZM105.986 42.68C107.97 42.68 109.586 42.04 110.834 40.76C112.114 39.48 112.754 37.688 112.754 35.384V34.904C112.754 32.568 112.114 30.76 110.834 29.48C109.586 28.2 107.97 27.56 105.986 27.56C104.002 27.56 102.37 28.2 101.09 29.48C99.81 30.76 99.17 32.568 99.17 34.904V35.384C99.17 37.688 99.81 39.48 101.09 40.76C102.37 42.04 104.002 42.68 105.986 42.68ZM133.216 47.384C131.392 47.384 129.776 46.984 128.368 46.184C126.992 45.352 125.904 44.184 125.104 42.68C124.336 41.176 123.952 39.432 123.952 37.448V23.24H129.568V37.016C129.568 38.936 130.032 40.36 130.96 41.288C131.888 42.216 133.216 42.68 134.944 42.68C136.864 42.68 138.368 42.04 139.456 40.76C140.576 39.48 141.136 37.656 141.136 35.288V23.24H146.752V47H141.232V43.688H140.416C140 44.552 139.248 45.384 138.16 46.184C137.072 46.984 135.424 47.384 133.216 47.384ZM156.363 56.6V51.704H169.419C170.315 51.704 170.763 51.224 170.763 50.264V43.736H169.947C169.659 44.312 169.227 44.888 168.651 45.464C168.107 46.04 167.355 46.504 166.395 46.856C165.435 47.208 164.219 47.384 162.747 47.384C160.923 47.384 159.307 46.984 157.899 46.184C156.523 45.352 155.435 44.184 154.635 42.68C153.867 41.176 153.483 39.448 153.483 37.496V23.24H159.099V37.016C159.099 38.936 159.563 40.36 160.491 41.288C161.419 42.216 162.747 42.68 164.475 42.68C166.395 42.68 167.899 42.04 168.987 40.76C170.107 39.48 170.667 37.656 170.667 35.288V23.24H176.283V51.464C176.283 53.032 175.819 54.28 174.891 55.208C173.995 56.136 172.763 56.6 171.195 56.6H156.363Z" fill="white"/>
<circle cx="8.5" cy="26" r="4.5" fill="#A0DDB9"/>
<circle cx="21" cy="26" r="4.5" fill="#A0DDB9"/>
<circle cx="33.5" cy="26" r="4.5" fill="#A0DDB9"/>
<circle cx="140" cy="54" r="2" fill="#A0DDB9"/>
<circle cx="146" cy="54" r="2" fill="#A0DDB9"/>
<circle cx="152" cy="54" r="2" fill="#A0DDB9"/>
<path d="M40 48.5L37.4019 43.25H42.5981L40 48.5Z" fill="#A0DDB9"/>
</svg>
